<?xml version="1.0" encoding="utf-8"?>
<!-- Generator: Adobe Illustrator 21.0.0, SVG Export Plug-In . SVG Version: 6.00 Build 0)  -->
<svg version="1.1" id="Слой_1" xmlns="http://www.w3.org/2000/svg" xmlns:xlink="http://www.w3.org/1999/xlink" x="0px" y="0px"
	 viewBox="0 0 1000 1000" style="enable-background:new 0 0 1000 1000;" xml:space="preserve">
<g>
	<g>
		<path d="M769.8,700.7c-10.7-4.6-20.5,0.4-23.2,6.7c-3.5,8-2.8,12.5,3.1,15.4C749.3,710.2,753.1,700.9,769.8,700.7z M725.9,568.1
			c-2.2,0.6-4.4,1.4-6.6,2.1c-12.5,8.3-21.6-0.8-32.8-6.8c1.7,6.7,3.4,11.6,9.1,14.3c3.4,1.6,6.9,3.4,9.6,5.8
			c7.6,6.8,14.8,14,22.1,21.1c5.3,5.1,12.8,4.6,18.9,7.7c2.7,1.4,6.6,0.5,11.5,0.8c-1.8-3.9-2.4-6.4-3.9-8.2
			c-2.8-3.6-1.9-16.8,2.1-19c4.4-2.4,9.4-3.8,14.1-5.6c1.1-0.5,2.3-0.9,3.3-1.6c3.1-2.3,9.1-18.6,7-21.6
			c-4.2-5.9-9.4-11.1-14.1-16.6c-0.4,0.4-0.9,0.7-1.3,1.1c1.8,3.5,3.7,6.8,5.2,10.4c0.4,1-0.3,2.6-0.5,3.9c-1.2-0.4-2.7-0.5-3.7-1.2
			c-3.1-2.4-6.1-5-9.1-7.5c-3.3-2.6-6.4-2.6-9.7,0.3c-1.4,1.3-3.3,2.3-5.1,2.7c-6.2,1.4-12.7,1.9-18.8,3.7
			c-7.1,2.2-14,5.4-18.4,12.1c2-0.1,3.8-0.6,5.5-1.2c11.1-4,22.1-8.3,33.4-11.8c6.7-2.1,10.6,2.6,8.8,8.2
			C743.2,563.5,734.5,565.8,725.9,568.1z M742.9,600.5c-0.9,0.2-1.6,0.3-2.3,0.1c-0.3-0.1-0.6-0.2-0.9-0.4c-0.3-0.2-0.6-0.4-0.8-0.7
			c0,0-0.1-0.1-0.1-0.1c-0.3-0.4-0.6-0.8-0.9-1.4c-0.1-0.1-0.1-0.3-0.2-0.5c-0.1-0.2-0.2-0.3-0.2-0.5c0,0,0-0.1,0-0.1
			c-0.3-0.7-0.5-1.6-0.7-2.6c-0.2-0.7-0.3-1.5-0.5-2.4c-0.2-0.9-0.3-1.8-0.5-2.8h0c0,0,0,0,0,0c-0.2,0.1-0.6,0.1-0.8,0.1
			c-0.1,0-0.1,0-0.1,0.1c-1.7,7.8-1.8,8-9.3,4.6c-3.7-1.7-7.2-3.8-10.6-6.1c-1-0.7-1.2-2.7-1.7-4.2c1.3-0.4,2.5-1.1,3.8-1.3
			c8-0.8,16-1.6,24-2c1-0.1,2.9,2,3,3.3c0.5,5.2,0.5,10.5,0.6,16.3C744.1,600.2,743.5,600.4,742.9,600.5z M781.3,720
			c-3.1-5.6-6.9-3.5-9.6-2.6c-2.1,0.7-3.5,3.4-5.3,5.2c0.4,0.5,0.9,1,1.3,1.6C772.1,722.8,776.5,721.4,781.3,720z M801.4,542.6
			c7-8.7,13.2-18,19.2-27.4c2.5-4,4.5-8.7,5.3-13.4c2.1-12.4,4.4-24.8,4.7-37.3c0.4-16.1,0-32.5-2.2-48.4
			c-2-14.3-6.7-28.3-10.8-42.2c-2.4-7.9-6-15.4-9.1-23.2c-0.7,0.2-1.4,0.5-2.1,0.7c1.3,3.5,2.8,6.9,3.8,10.4
			c2.4,8.2,4.7,16.5,6.7,24.8c2,8.4,3.8,16.8,5.3,25.3c3.7,21.3,2.9,42.8,0.7,64.1c-1.1,10.5-4,21.1-7.6,31.1
			c-2.2,6-7.2,11.1-11.2,16.4c-1.3,1.8-3.4,3-5.9,5.1c-0.4-2.4-0.7-3.3-0.7-4.1c0.7-7.9-4.1-16.2-11.1-19.7
			c-10.2-5.1-20.4-10.2-30.4-15.7c-11-6.1-22.6-8.4-34.8-6.7c-9.7,1.3-19.3,3.8-28.9,6.1c-2.7,0.6-5.2,2.4-7.7,3.6
			c7.8,1.8,15.1,2.5,22.4,3.3c3.9,0.4,7.9,0.7,11.7,1.7c13.1,3.6,26.3,7.3,39.3,11.4c3.8,1.2,7.5,3.4,10.5,6c5,4.3,9.4,9.5,14.3,14
			c1.6,1.4,3.9,2.1,6.1,2.7c1.2,0.3,2.5,0.3,3.7,0.3c0.4,0,0.8,0,1.1,0c0.4,0,0.8,0,1.1,0c-0.1,0.3-0.1,0.6-0.1,0.9
			c0,0.3-0.1,0.6-0.1,0.9c-0.2,1.9-0.2,3.8-1.1,5.1c-12,17.9-13.1,37.9-10.4,58.1c2.1,15.6,6.5,30.9,9.8,46.4
			c3.2,15.1,7.7,29.8,17.8,41.7c4.8,5.7,8.1,11.6,10.1,18.6c2.4,8.8,0.1,14.1-8.7,17.2c-8.3,2.9-16.8,5.3-24.5,7.7
			c4.3,1,9.5,2.8,14.9,3.4c6,0.7,10.7-2.6,15.4-6.4c6.7-5.6,11.7-19,9.1-27.1c-0.4-1.3-1.5-2.4-2.2-3.7c-5-9.1-10.6-17.9-14.7-27.3
			c-4.1-9.5-6.9-19.6-10-29.5c-4.6-14.9-11.5-29.1-11.2-45.3c0.1-3.9,0.7-6.1,4.4-8c4.8-2.5,9.1-6.1,8.9-12.4
			c-0.1-3.4-1.2-6.6-5.5-4.2c-2.7,1.5-4.9,3.9-7.8,6.3c-0.1-1.4-0.6-3.1-0.4-4.6C789.8,558.9,795,550.6,801.4,542.6z M501.8,649.6
			c-2.9-0.5-5.5-2.3-9.5-4.1c7.7,6.4,14.6,11.2,25.3,8.1c-1.3-4.8-2.2-10-4.3-14.7c-2.5-5.5-2.7-9.9,0.2-15.6
			c2.8-5.5,3.6-12.2,3.9-18.4c0.1-2.5-3.5-6.9-5.9-7.3c-3.1-0.5-7.2,1.6-10,3.7c-6.9,5.1-13.2,11.1-20,16.3
			c-4.1,3.1-8.7,5.5-13.1,8.2c0.1,0.3,0.3,0.5,0.4,0.8c4.6-2.1,9.3-4.1,13.9-6.2c5.6-2.6,12.7,0.8,15.1,6.3c2.5,5.7,6,10.9,9,16.3
			c0.9,1.7,1.6,3.5,2.4,5.3C506.7,648.7,504.1,650,501.8,649.6z M483.1,552.2c-6.2-5.1-12.3-9.4-20.3-10.3c-7.3-0.8-14.7-1.2-22-1.8
			c9.4,2.1,17.7,6,23.9,13.5c4.4,5.3,9.4,9.3,16,11.4c1.4,0.5,3.5,2.4,3.4,3.4c-0.7,4.7-0.8,9.7-7.1,11.6c-4.8,1.4-9,4.4-13.7,6.4
			c-8.3,3.5-14.4,9.4-19.2,16.7c-0.1,0.2,0,0.5,0.1,0.8c1.4-0.7,2.8-1.3,5.4-2.6c-1.7,5.9-3,10.6-4.3,15.2c1.9-1.7,3-3.5,4-5.4
			c6.3-11.8,16.9-17.8,29.3-21c7.4-1.9,9.5,0.1,7.9,6.9C495.1,587.6,495.3,562.2,483.1,552.2z M785.2,755.5
			c-3.3-5-6.2-10.3-9.2-15.5c-1.8-3.1-3.5-6.3-5.6-10.1c-1.3,1.8-2.1,2.4-2.1,2.9c0.2,10.8,1.3,21.3,9.9,29.2
			c4,3.7,8.1,7.3,12.2,11.1c0.6,0.6,1.1,1.4,1.4,2.3c1.9,6.2-0.3,13.7-6.2,15.7c-9.9,3.5-20.3,5.7-30.5,8.3
			c-1.6,0.4-3.4-0.5-5.2-0.9c-0.1-0.5-0.1-1-0.2-1.5c11.3-5.3,23.4-9.3,32.9-20c-2.2,0.2-3.1,0.1-3.8,0.4c-4.7,1.8-9.3,3.6-13.9,5.5
			c-4.5,1.8-9.4,3-13.4,5.6c-13.3,8.7-27.6,15.1-42.8,19.6c-0.4,0.1-0.6,0.8-1.7,2.5c3.8-0.2,6.7-0.1,9.5-0.5
			c4.3-0.7,8.9-3.5,12.6-2.6c11.2,2.8,22.1,2.6,33-0.5c4.1-1.2,6.1,0.4,7.5,3.9c3.1,7.6-0.2,20-6.7,25.1c-6.3,4.9-14,3.8-19-2.5
			c-4.6-5.8-9.3-11.4-14.1-17c-1.1-1.3-2.7-2.3-4.1-3.4c-0.5,0.5-1.1,0.9-1.6,1.4c3.4,4.9,6.6,9.9,10.2,14.6
			c5.1,6.9,5.2,6.7-1.5,11.8c-12.7,9.8-16,24.4-18.7,38.9c-1.5,8.2-5.5,13.8-12.6,17.6c-11.2,6.1-23.4,5-34.8,2.4
			c-13.2-3-26-8.2-38.6-13.5c-19.2-8.1-38-17.1-57-25.7c-2.2-1-4.3-2.3-7-3.8c53-9.7,83.7-38.9,84.4-93.5
			c0.5-37.7-24.4-70.3-60.1-82.8c-31.9-11.2-69.5-1.8-88.8,18.1c1,1.3,2,2.7,2.9,3.9c22.2-17,46-25.5,73.9-19.3
			c45.3,10.1,75.2,56.2,64.8,100.6C629,836.7,578,855.5,545,849.1c-55.9-10.8-86.6-70.1-61.6-120.7c3.7-7.5,3.8-7.7,12.3-5.8
			c13.6,3,30.3-4.3,36.8-16.1c-1.7,1.3-2.9,2.3-4.2,3.1c-7.3,4.9-14.9,8.7-24,8.6c-16.9-0.3-30.9-6.8-42.8-18.8
			c-5.4-5.4-12.3-9.2-18.4-14c-6.5-5.1-13.6-9.6-18.9-15.8c-19.5-22.8-34.4-48.3-42.6-77.4c-1.4-5-3-10.2-3-15.3
			c0-22.7,11.2-38.9,30.7-49.6c20.9-11.4,42.2-11.3,63.8-1.5c2.6,1.2,5.6,1.3,8.5,2c0.1-0.5,0.3-1,0.4-1.5c-10-3.1-20-6.1-30-9.2
			c0.1-0.5,0.2-1,0.4-1.5c3.3,0.5,6.6,0.9,9.8,1.4c-3.4-2.8-6.3-6.3-9.9-7.6c-6.1-2.2-12.7-3.9-19.1-4.2c-7.5-0.4-15.6-0.7-22.5,1.7
			c-17.2,6.1-33.9,13.6-46.9,27.2c-1.4,1.4-3.8,1.8-5.5,3.1c-3.3,2.5-10.1,2.2-7,11.1c-2.6-2.8-3.8-4.2-5.1-5.7
			c-1,1.6-1.7,2.8-2.3,3.8c-2.7-0.2-5.2-1-7.5-0.6c-6.4,1.2-12.3-0.3-18.1-2.3c-1.2-0.4-2-2.7-2.5-4.3c-0.2-0.6,1-2.3,1.6-2.3
			c5.4-0.1,10.6-1.1,15.5-3.2c3.8-1.6,7.5-3.4,11.3-4.9c1.4-0.6,3.1-1,4.6-0.9c5.1,0.4,7.5-1.8,7.2-7.2c1.7,0.7,3.4,1.4,5.4,2.3
			c0.4-2.2,0.7-3.8,1.1-5.9c1.7,1,2.8,1.7,3.7,2.2c4.1-3.9,8.2-7.6,12.5-11.7c0.3,0.1,1.4,0.4,1.8,0.5c1.6-2.8,3-5.1,4.7-8
			c3.5,4.2,8.3,4.1,9.2,1.3c1.4-4.3,4.5-3.1,6.8-4.4c1.1-0.7,2.2-1.5,3.3-2.2c1.1,1,2.2,2.1,3.2,2.9c1.3-1.1,2.6-2.9,3.2-2.7
			c4.5,1.4,8.6,0,12.7-1.4c0.6-0.2,1.4,0,2.1,0.1c6.5,1.4,14.1-1.4,19.2,5.4c0.3,0.5,1.8,0,2.6,0.3c6.4,1.8,12.8,3.5,19,5.6
			c5.1,1.7,10,4,15.1,5.6c2.8,0.9,5.9,0.9,9.1,1.4c1.2-2.4-0.5-7.2-4.1-8.9c-2.9-1.4-6.5-1.8-8.9-3.7c-8.3-6.6-17.9-10.6-27.2-15.4
			c-14-7.2-28.6-10.9-44.3-10.4c-6.2,0.2-12.4,0.7-18.5,1.3c-1.1,0.1-2.1,1.3-3.2,1.9c-2.6,1.2-5.1,2.6-7.9,3.5
			c-2.3,0.7-6.1-0.1-7,1.3c-3.4,5-8.8,5.8-13.5,8.1c-7.3,3.6-14.1,8.1-21.6,11c-4.7,1.8-10.3,1.3-16.5,2c0.1-0.1-0.7,1.1-2.2,3.5
			c-1.5-2.1-2.3-3.9-3.8-4.8c-1.4-0.8-3.5-0.4-5.1-1c-3.2-1.1-5.9-2.9-10-1.8c-3.4,1-6.9-4.7-5.9-7.5c7.6,0.8,15.1,1.5,22.6,2.3
			c0.1-0.5,0.2-0.9,0.3-1.4c0.7,1.2,1.3,2.4,1.2,2.3c3.6-0.4,6.4-0.7,9.1-1c0.7-0.4,1.7-0.7,2.6-1.4c2.4-1.9,4.8,1.3,5.9,0.7
			c3-1.6,6.4-1.1,9.8-3.5c4.3-3.1,2.3-6.7,4.1-9.6c1.5,1.2,3,2.4,4.8,3.8c2.3-3.5,4.2-6.6,6.5-10c0.8,0.2,2.1,0.6,3.5,1v-2.5h11.4
			c-0.7-1.7-1.2-3-2.2-5.5c2.3,1.6,3.6,2.5,4.8,3.3c1.3-1.5,2.5-2.9,3.7-4.3c1.2,0.5,2.2,1,3.6,1.6c-0.4-2.3-0.7-3.9-1.2-6.7
			c2.8,2.3,4.6,3.8,6.7,5.5c9.5-7.8,20.5-7,31.3-4.9c2.9,0.6,5.6-0.8,7.7,0c7.7,3,15.2,6.7,23,10.3c0.3-0.4,1.1-1.5,1.2-1.6
			c3.4,1.7,6.2,2.9,8.7,4.5c5.1,3.4,10,7,15.1,10.5c0.7,0.4,1.8,0.1,2.6,0.4c1.1,0.3,2.4,0.7,3.2,1.4c3,2.6,5.5,6.4,9,7.9
			c8.2,3.7,15.5,8.4,22.5,13.8c6.6,5.1,13.9,9.3,21,13.7c2,1.2,5.3,0.9,6.8,2.4c6.6,6.7,13,13.7,19,21c6.8,8.3,13,17.1,19.5,25.6
			c0.7-0.2,1.4-0.4,2-0.7c-0.2-2.2,0.3-4.6-0.6-6.4c-5.5-10.8-10.5-22-17.1-32.1c-4.9-7.5-11.6-13.9-18.1-20.1
			c-6.7-6.3-14.5-11.5-21.3-17.8c-9.6-8.8-19.1-17.5-30.9-23.3c-1.1-0.5-2.5-1.2-3-2.2c-2.3-5.2-7-7-11.7-9.1
			c-2.4-1.1-5.8-2.8-6.3-4.9c-1.2-4.4-4.3-5.1-7.5-5.4c-5.6-0.5-9.3-3.5-12.6-7.8c-1.3,0.5-2.6,1.1-4.9,2c2.7-4.8-0.3-5.6-2.9-6
			c-2.5-0.4-5.3,0.4-7.7-0.3c-5.9-1.6-11.5-5.6-18.1-2.4c-0.2,0.1-0.7-0.8-1.2-0.9c-2.4-0.4-4.8-1.1-7.2-1.1c-4,0-7.4,2.2-11.9,1.6
			c-6.6-0.8-13.4,0.4-20.1,1c-5.7,0.5-11.3,1.6-16.9,2.2c-2,0.2-4-0.2-6-0.3c-0.1-0.7-0.2-1.5-0.3-2.2c6.2-1.8,12.3-3.9,18.6-5.4
			c5.5-1.4,11.2-2.7,16.9-3.1c4.3-0.3,8.9-3.9,12.2-0.3c4.1-0.5,7.7-1.6,11-1.1c7.2,1,14.6,0.6,21.6,3.1c0.9,0.3,2,0.2,3,0.2
			c3.4,0,7.3-1.1,9.9,0.2c3.9,2,7.7,3.4,12.1,3.8c1.7,0.2,3.1,2.1,4.8,3c3.8,2,7.2,6.4,10.8,2.9c2.5,1.9,4.2,4.3,6.4,4.8
			c4.1,1.1,8,1.7,9.4,6.5c0.1,0.5,1,1.1,1.6,1.1c6.1-0.2,8,6.3,13,8c2.1,0.7,3.8,2.4,5.6,3.7c0.4-0.4,0.7-0.8,1.1-1.2
			c0.3,1.7,0.6,3.4,0.7,4c2.6,0.9,4.9,0.9,6.1,2.1c5.8,5.7,11.3,11.7,16.9,17.6c1.1,1.2,1.8,2.8,2.7,4.2c0.6,1,1,2.7,1.8,3
			c5.7,1.7,8,6.7,11.3,10.9c3.9,4.8,8.3,9.1,12.5,13.5c1.3-1.5,2.1-2.3,2.3-2.6c2.4,3.4,4.4,6.8,6.8,9.8c1.7,2.1,5.3,3.4,5.7,5.5
			c0.9,4.8,2.8,8.1,8.3,9.9c0-3,1-6.4-0.2-8.8c-4.5-9.3-12.2-16.8-14.8-27.2c-0.1-0.3-0.5-0.5-0.7-0.8c-7.8-9.9-13.4-21.5-21.8-31
			c-1.4-1.5-3.4-2.6-4.4-4.3c-3.8-6.7-7.3-13.5-11-20.3c-0.2-0.3-0.5-0.5-0.8-0.8c-7.1-5.7-14.2-11.3-21.3-17.1
			c-1-0.8-1.7-2-2.6-2.9c-3-3-5.6-7.4-9.3-8.8c-8.7-3.4-14.7-10.9-24.5-13.1c-6.1-1.4-10.8-7.6-18.9-7.1c-5,0.3-10.1-4-16-3.2
			c-3.1,0.4-6.3-0.9-9.5-1.3c-3.9-0.5-7.8-0.7-12.5-1.1c-3.8,0-8.5,0.4-13.1-0.1c-5.5-0.7-7.7-4.1-6.7-8.6c1.9-0.1,3.6-0.2,5.6-0.3
			c1,1.5,2.3,3.5,3.9,6c3.5-5.3,8.1-4.7,12.7-4.4c5,0.3,10.5,4.3,14.8-1.7c0.1-0.2,0.7-0.3,1-0.2c3.8,1,7.5,2.1,10.9,3.1
			c1.5-0.4,2.9-1,4.4-1.1c1.2-0.1,3.1,1,3.6,0.5c4-4.5,6.5-0.7,9.4,0.4c5.5,0.7,10.9,1.4,17.6,2.3c0,0,1,1.2,2.3,2.8
			c3.4-4.8,6.7-3.2,10.1-0.3c1.3,1.1,3.5,2.9,4.5,2.5c4.9-2.2,6.2,1.9,8.4,4.3c5.6,6.4,12.9,8.5,19.4,9c4.7,4,8.5,7.4,12.4,10.7
			c11.7,9.3,22.6,19.5,31.5,31.8c9.2,12.6,20.1,24,30.3,35.9c0.2-0.1,0.4-0.1,0.6-0.2c-2.2-6.4-4.4-12.8-6.6-19.2
			c0.2-0.2,0.5-0.3,0.7-0.5c2,2.7,4,5.5,6.8,9.3c-0.4-2.1-0.4-2.8-0.6-3.4c-3.7-11.5-11.8-20.7-15.2-32.6
			c-1.9-6.5-7.9-11.9-12.2-17.6c-3.8-4.9-8-9.5-11.9-14.4c-2.1-2.6-3.7-5.8-6.1-8.1c-2.1-2-6.4-2.3-7.5-4.5
			c-4.2-8.8-13.9-9.6-20.3-15.1c-5.8-5-13-8.5-19.8-12.2c-5-2.7-9.8-7-16.3-4.5c-3.2-5.2-8.7-4.4-13.3-5c-9.2-1.3-18.5-1.9-27.7-2.9
			c-12.2-1.3-24.1-4.9-36.8-3.4c-7.4,0.8-15.2-2.7-22.7,0.8c-0.4,0.2-1.1,0.1-1.5-0.1c-6.9-2.8-13.8-1.4-20.2,0
			c-1.8-1.6-4.2-4.5-4.9-4.2c-4.7,2.5-8.4-0.3-12.6-1.3c-2.9-0.7-6.2,0.5-9-0.2c-6-1.5-11.8-3.3-17.5-5.6c-2-0.8-3.4-3.2-4.8-5
			c-0.3-0.4,0.4-2.2,0.7-2.2c2.4,0,4.8,0.1,7.1,0.6c1.6,0.3,3.2,2.1,4.7,1.9c5.2-0.6,10.4,4.6,15.5,0.1c0.1,0,0.7,0.8,1.1,0.9
			c3.6,1.2,7.2,2.7,10.9,3.4c6.8,1.3,13.7,2.3,20.7,3c1.7,0.2,3.6-1.6,6.1-2.8c0.5,0.8,1.6,2.8,2.4,4c2.3-0.7,4.3-1.6,6.3-1.8
			c6.2-0.5,12.4-0.7,18.6-1.1c1.6-0.1,3.1-0.9,4.7-0.8c6.7,0.4,13.5,1.1,20.2,1.6c6.5,0.4,14-1.3,19.3,1.4c6.1,3.2,12.8,1.6,18.8,5
			c4.8,2.7,11.4,2,17.2,2.9c0.2-0.4,0.3-0.8,0.5-1.2c-9.3-4.2-18.6-8.6-28-12.6c-3.5-1.5-7.5-1.9-11.2-3c-7.8-2.4-15.5-5.1-23.3-7.5
			c-1.7-0.5-3.5-0.6-5.3-1l-10.9-3.8c-7-1.8-14.1-3.4-21.1-5.4c-5.2-1.5-10.4-3.3-15.4-5.4c-6.8-2.8-13.4-6-20.3-9.1
			c5.5-4.7,9.8-1,14.6,0.3c4.7,1.3,10.5-0.2,12.3,5.1c2.7,0.2,4.7,0.4,6.7,0.5c2,0.1,4.1,0.3,6.1,0.2c1.3,0,3.5-0.9,3.8-0.5
			c3,4.5,7.5,1.5,11.1,2.7c5.7,1.9,11.3,4.1,17.3,4.9c1.8,0.2,3.3,2,4.9,3.1c0.8,0.6,1.6,1.2,2.5,1.9c1.2-1.4,2.1-2.6,3.1-3.8
			c1.5,1.4,2.7,2.4,3.8,3.5c0.3-0.6,0.5-1.1,0.8-1.7c1.6,0.5,3.2,1.1,4.8,1.6c0.4-0.6,0.9-1.3,1.5-2.2c3.3,2.2,4.5,5.8,10.1,4.1
			c3.6-1.1,9.4,3.2,13.5,6c6,4.1,13.7,3.9,19.4,9.3c3.7,3.4,10.2,3.5,15,6c4.7,2.5,8.3,7.4,13.1,9.2c9.7,3.7,16.5,11.3,24.7,17
			c8.3,5.8,15.2,13.7,22.5,20.8c2.9,2.9,5.3,6.4,7.9,9.6c0.5-0.3,0.9-0.5,1.4-0.8c-3.2-7.4-5.4-15.6-10-22.1
			c-5.8-8.1-13.1-15.3-20.6-21.9c-11.9-10.4-24.4-20-36.9-29.7c-2.3-1.8-5.6-2.4-8.2-3.8c-5.2-2.7-10.4-5.6-15.6-8.6
			c-1-0.6-1.7-1.9-2.3-2.6c-9.8-6.5-19.6-13-29.4-19.4l1.1-2c3.6,2,7.3,4,10.9,6.1c2,1.1,4.1,3.9,5.7,3.5c6.6-1.4,9.8,5.1,15.6,6.2
			c4.4,0.8,8,5.7,12.1,8.8c0.2-0.3,0.8-1.4,1.1-1.3c6.2,1.6,12.6,2.8,18.5,5.3c3.6,1.5,6.4,5,9.6,7.5c1.1-0.9,2.1-1.7,3.1-2.5
			c2,3.4,3.9,6.4,5.8,9.6c2.2-0.2,4.4-0.4,6.7-0.7c7.6,9.4,8.3,9.9,12,7.9c1.7,4.4,2.9,9.2,9.2,10.8c0,0.3,0.2,1.7,0.4,3
			c6.4-0.2,10.7,2.4,10.5,7c-0.2,4.1,1.3,5.9,4.4,5.7c1.4,2.8,2,6.4,3.6,6.9c5.7,2,6.9,5.9,5.5,11.9c1.6-2.5,2.6-4.2,3.8-6.1
			c0.6,4.1,0.6,7.5,1.8,10.5c1.7,4.3,4.3,8.3,7,13.2c3.7,1.6-1.2,4.9,0.4,6.6c4.6,6.5,9.1,12.9,13.4,19c1.7,4.2,3.2,8.3,4.9,12.3
			c0.8,1.9,1.8,3.6,2.5,5.5c2.2,5.6,4.3,11.1,6.5,17c2-1.5,3-2.2,4.1-3.1c1.8,7.2,7.6,9.1,11.9,5.5c5.6,1.9,10.6,3.6,15.6,5.3
			c0-0.4,0-0.7-0.1-1c5.5-1.4,10.6-2.6,15.7-3.9c0-0.6,0-1.3,0-1.9c-6.9-4.3-14.9-7.5-20.4-13.2c-8.6-8.7-17.7-17.3-22.3-29.3
			c-2-5.1-4.7-9.9-6.5-15c-2.7-7.5-4.8-15.3-7.2-22.9c-3.1-9.6-10.1-17.3-13.6-26.9c-2.2-6.2-7.1-11.3-10.8-17
			c-2.1-3.3-4.1-6.7-6.1-10.1c0.4-0.2,0.9-0.4,1.3-0.6c3.8,4.1,7.6,8.2,11.5,12.3c2.4,2.5,4.6,5.7,7.5,7.2c4.2,2.1,6,5.6,8.2,9.1
			c0.8,1.4,1.2,3.1,2.2,4.3c5,6.3,10.1,12.5,15.2,18.7c0.6-0.5,1.5-1.1,1.5-1.2c3.8,5,7.2,9.6,10.9,14.5c1.7-0.6,3.7-1.3,5.7-2.1
			c2.8,3.4,3.6,9.6,9.9,6.7c1.7,3.2,3.3,6,5,9.1c1.3-2.1,2.2-3.6,3.2-5.1c9.7,9.8,9.5,8.1,28.7,14.6c-0.2-1.3-0.4-2.5-0.5-2.6h30.6
			c0.1-0.5,0.3-1.1,0.4-1.6c-20.9-8-40.6-18-55.7-35.6c0.2-0.9,0.4-2.3,0.4-2.3c-4.6-3.8-8.3-6.9-12.1-9.9c0.3-0.7,0.5-1.3,0.8-2
			c3.6,0.6,7.2,1.3,10,1.8c-4.1-3.3-8.7-7.1-13.4-10.9c0.2-0.2,0.4-0.4,0.5-0.6c7,3.2,14.1,6.5,21.1,9.7c0.1-0.3,0.3-0.6,0.4-0.8
			c-1.1-1.5-2.2-3-3.3-4.5c0.2-0.4,0.5-0.9,0.7-1.3c4.5,1.5,8.9,2.9,13.4,4.4c0.1-0.2,0.3-0.3,0.4-0.5c-1.3-0.7-2.6-1.5-3.9-2.2
			c0.3-0.4,0.6-0.9,1-1.3c4,1.3,7.9,2.6,12,4c0-5.9,1.9-7.3,7.1-6.5c2.5,0.4,5.1,0.5,7.6,0.7c0.1-0.4,0.1-0.8,0.2-1.3
			c-2.4-0.8-4.7-1.6-7.3-2.4c2.4-4,5.1-4.5,9.1-3.3c8.6,2.7,17.5,2.6,24.6-3.6c4.7-4.1,7.9-10,11.5-15.2c3.3-4.9,3.7-10.4,2.5-16.1
			c-0.4-1.9-0.3-3.9-0.5-5.7c7.2,1.8,13.6,4.3,20.1,4.8c5.1,0.3,8.2,1.2,9.3,6.4c0.5,2.3,0.7,4.6,1.5,6.8c1.6,5,3.4,9.9,5.1,14.8
			c0.6-0.2,1.3-0.4,1.9-0.7c-0.4-1.9-0.5-3.9-1.3-5.6c-3.8-8.1-3-16.2-0.2-24.4c2.4-7.3,9.2-12.1,8.6-21.8
			c-0.5-8.4-1.9-15.7-5.2-23.1c-1.2-2.7-2.3-6-1.8-8.6c2.8-15-0.3-28.1-10.8-39.4c-1.3-1.4-1.9-3.7-2.6-5.6
			c-2.8-8.1-6.1-15.7-14.8-19.4c-5.6-2.3-8-7.2-6.9-13.3c1.1-5.8,0.3-10.7-4-15.4c-5.2-5.6-10-11.7-14.1-18.1
			c-4.4-6.9-10.1-11.3-18.1-13.2c-2.6-0.6-5.5-1.7-7.2-3.5c-3.6-4.1-7.8-6.7-12.9-8.1c-8.2-2.3-16.3-3.1-24,1.5
			c-2.4,1.4-4.5,3.6-6.9,5c-3.1,1.8-5.1,2.2-6.1-2.8c-1.4-7.3-2.8-15.6-9.8-19.7c-11.3-6.6-23.2-7.9-35.3-0.1c-4-4.3-8.7-2.7-11.9-1
			c-1.6-3.9-2.6-7.2-4.2-10.3c-1.2-2.3-3.6-4.1-4.4-6.5c-1.6-4.8-3.7-8.6-8.8-10.7c-7.1-2.8-13.9-6.6-20.9-9.5
			c-3.4-1.4-7.1-1.8-10.7-2.6c-2-0.5-4.5-0.2-6.1-1.3c-7.8-5.2-16.5-5.2-25-3.8c-4.5,0.8-8.3,1.3-12.9,0c-4.1-1.2-8.9-0.1-13.4-0.1
			c-1.5,0-3.2,0.3-4.5-0.2c-8-2.9-15.7-2.6-23.4,1.4c-6,3.1-12.2,4.6-19,1.1c-2.9-1.5-6.9-2.7-10-2c-7.4,1.5-15.4,2.8-21.7,6.6
			c-9.9,5.9-18.1,14.6-29.3,18.6c-1.6,0.6-2.6,2.9-4,4.3c-1,1-2.2,1.8-3.4,2.5c-3.9,2.4-7.7,4.8-11.7,7c-1.5,0.8-3.3,1.9-4.8,1.6
			c-11.6-2-21,2.3-29.9,9.1c-2,1.6-5,2.2-7.6,2.8c-3.8,0.8-7.6-0.3-11.5,2.1c-3.3,2-8.7,2.7-12.4,1.6c-11.2-3.5-27.2,0.2-35,9.1
			c-1.1,1.3-3.8,2.4-5.2,1.9c-9.9-3-18.3,0.3-26.2,5.8c-1.2,0.8-2.3,1.7-3.7,2.2c-5.2,1.8-10.8,2.6-15.5,5.2
			c-10.2,5.7-19.5,12.8-22.7,24.6c-1.7,6.2-5,8.9-10.6,10.6c-7.7,2.3-13.2,11.3-12.8,19.3c0.1,1.7-0.9,4.1-2.3,5.1
			c-5.5,4-11.4,7.4-16.9,11.3c-6.3,4.6-10.1,11.3-8.4,18.7c1.8,8.2-2.8,15-2.3,22.7c0.1,1-1.4,2.4-2.4,3.2
			c-3.9,3.1-8.4,5.6-11.9,9.1c-7.7,7.6-13.9,23.1-6,34.3c2.9,4.1,1.7,6.3-1.4,9.5c-3.4,3.5-7.1,7.6-8.4,12.1
			c-2.9,9.7,2.3,20.1-1.2,30.1c-0.4,1.2,0.5,2.8,0.8,4.2c1,4.4,1.3,8.5-0.7,13c-3.5,7.9-4.8,16.1-0.2,24.4c1.3,2.5,1.8,6.1,1.1,8.9
			c-1.5,5.8-3,11.4-1.3,17.4c1,3.4,1.7,6.9,2.3,10.3c1.1,6.6,3.8,12.1,9.5,16.2c2.1,1.5,3.8,4.4,4.4,6.9
			c3.1,13.2,9.5,23.9,22.1,29.9c4,1.9,5.6,4.1,5.3,8.6c-0.3,5.2,0.4,10.4,5.7,13.6c3.2,1.9,6,4.5,9.3,6.3c7.3,4,14.7,7.4,21.2,12.8
			c3.9,3.2,5,5.5,4.2,10.2c-0.5,3.2-0.2,7.6,1.6,10c5.4,7.1,11,14.2,19.9,17.6c4.6,1.8,9,4.3,6.6,10.8c-0.4,1,0.4,2.5,0.9,3.6
			c3,6.2,7.2,11.6,13.9,13.5c10.6,3.1,13.2,10.7,13.7,20.6c0.2,4.2,1.6,9.2,4.3,12.3c4.8,5.4,7.2,13,14.8,15.9
			c0.8,0.3,1,2.1,1.6,3.2c4.3,8.5,8.3,17.2,13.1,25.4c5.2,8.9,11.3,17.3,16.8,26.1c3.8,6.2,7.8,12.4,10.7,19.1
			c3.4,7.9,10.3,12.5,15.7,18.4c2,2.2,5.6,2.9,8.6,3.9c1.7,0.6,3.7,0.5,5.1,0.7c-7.5-9-14.6-17.4-22.1-26.2c1.8-0.5,3-0.8,4.5-1.2
			c-2-3.8-3.9-7.3-5.7-10.7c0.3-0.1,0.5-0.3,0.8-0.4c4.9,3.4,9.7,6.8,13.9,9.7c2-0.8,3.6-2.1,4.4-1.7c5.3,2.3,10.5,4.9,15.9,7.5
			c0.1-0.2,0.6-1.6,0.8-1.6c5.9,1.4,11.8,3,18.9,4.8c-3.1-3.4-4.9-7.1-7.6-8c-8.4-2.7-15-8-21.8-13.2c-2.9-2.2-6.2-3.6-9.2-5.3
			c-0.5-1.5-1.3-3.1-1.5-4.7c-0.4-2.7-1.1-5.8,3.6-5.1c3.7,0.5,7.5,1.5,11.2,1.3c7.2-0.3,14.3-1.3,21.5-2.1c0.5-0.1,1-0.8,2.6-2.1
			c-6.3-0.9-11.5-1.3-16.6-2.5c-4.6-1.1-10.3-1.9-13-5c-1.9-2.1-3.6-3-5.7-3.8c-1.6-0.6-3.5-0.5-5.7-0.8c-0.1-2-0.2-3.9-0.4-5.6
			c-2.1-1.3-4.3-2.5-6.3-4c-0.6-0.4-1.2-1.6-1-2.2c0.2-0.7,1.5-1.7,1.9-1.5c3.7,1.8,5.8-1.3,8.6-2.4c6.6-2.4,13.9-3.2,20.3-6.1
			c6.7-3,16.7-3.1,16.3-14.3c-0.1-1.8-0.7-3.5-1.1-5.3c-1.5,0.8-3.2,1.4-4.6,2.4c-0.9,0.7-1.5,1.8-1.5,1.8c-2.7,0-4.4-0.2-5.9,0
			c-6,0.8-11.2,4.6-17.9,3c-4.3-1-9-0.2-11.7-0.2c-4.9-2-8.7-3.5-12.3-5.1c-3.4-1.5-6.8-3.1-10-5c-0.6-0.3-0.3-2.1-0.4-3.2
			c1.1-0.1,2.3-0.5,3.3-0.2c3.3,1,6.5,2.3,9.8,3.4c1.9,0.6,3.9,0.9,5.1,1.2c2.1-0.8,3.5-1.3,5-1.8c-0.8-1.7-1.6-3.6-2.5-5.5
			c0.3-0.2,0.6-0.3,0.9-0.5c1.7,2.2,3.4,4.4,4.5,5.8c3.7-0.6,6.5-1,9.4-1.5c-0.7-1.1-1.4-2.2-1.8-3c4.2-0.9,8.2-1.7,12.7-2.6
			c-1.9-2.7-3-4.1-4-5.6c0.3-0.3,0.6-0.6,0.9-0.9c2,1.3,4,2.6,5.5,3.6c4.5-2,8.5-3.9,13.2-6c17.6,52.8,49,94.2,99.8,119
			c-0.2,0.8-0.2,1.2-0.3,1.5c-0.5,1-1,1.9-1.4,2.9c-10.7,20.7-13.2,42.3-7.6,64.9c6.1,24.4,21.1,42.5,41.3,56.1
			c8.5,5.7,18.9,8.6,28.5,12.7c1.6,0.7,3.3,1.5,4.9,2.2c-0.1,0.7-0.3,1.3-0.4,2c-2.9-0.2-5.8-0.3-8.6-0.5
			c-13.5-1.1-25.7,1.6-33.6,13.7c-3.6,5.5-6.4,11.7-8.3,18c-2.8,9.3-4.6,18.8-6.6,28.3c-2,9.8-3.7,19.8-5.6,29.7
			c-0.1,0.5,0.2,1,0.4,1.6h4.1c4.3-14.1,8.2-28.1,12.9-41.8c2.8-8.3,6.3-16.5,10.3-24.2c5.6-10.9,14.7-17,27.4-17
			c8.1,0,16.2-0.1,24.3,0.1c2.8,0.1,5.9,0.3,8.5,1.4c8.7,3.9,17.5,7.7,25.7,12.5c20.8,12.2,41.7,24.5,65.3,30.2
			c10.1,2.4,21.6,3.7,31.4,1.4c16.2-3.9,29.1-11.5,31.2-36.1c0.5-5.5,2.4-11.7,5.7-16c5-6.6,9.9-15.7,21.2-10.9
			c0.4,0.2,1.1,0,1.6-0.1c18.6-3.8,25-14.8,22.7-32.8c-0.5-3.4-2.7-6.8-4.8-9.7c-1.8-2.6-1.6-4.2,1-5.7c1.1-0.6,2.3-1,3.5-1.3
			c11.9-3.2,18.2-11.7,21.4-22.9c0.6-2.2,0.5-5.3-0.6-7.1C793,766.2,788.8,761,785.2,755.5z M364.7,446.1c2.2,0.5,4.4,0.8,6.5,1.6
			c0.2,0.1-0.3,2.3-0.5,3.5c-2.3-0.7-4.5-1.4-6.8-2C364.2,448.1,364.4,447.1,364.7,446.1z M444,405.1c1.6,0.2,4.1-0.2,4.6,0.7
			c0.8,1.6,0.5,3.7,0.6,5.7c-0.6,0.3-1.2,0.5-1.8,0.8c-1.4-1.9-2.9-3.8-4.3-5.8C443.4,406,443.7,405.5,444,405.1z M434.7,410
			c-0.2,0.6-1,1.4-1.4,1.4c-1-0.1-2.4-0.5-2.7-1.1c-0.9-2.2-1.4-4.6-2.3-7.7C431.9,403.3,435.5,407.8,434.7,410z M433.3,356.1
			c2.7,1.7,5.5,3,7.6,5c0.9,0.8,0.5,3,0.6,4.5c-1.3-0.3-3.3-0.1-3.9-0.9C436,362.2,430.5,361.7,433.3,356.1z M419,356.6
			c1.9,2,3.9,3.8,5.4,6.1c0.3,0.5-1.4,2.4-3.1,5.2c-2-4-3.4-6.4-4.5-9.1C416.7,358.4,418.3,357.3,419,356.6z M381.6,357.1
			c3.2-2.6,2.4,1.5,3.4,2.8c0.7,1,1.6,1.8,2.4,2.7c-0.2,0.7-0.3,1.4-0.5,2.1c-2.1-0.3-5.6,0-5.9-0.9
			C380.3,361.8,380.3,358.1,381.6,357.1z M384.7,387.1c4.9,1.6,10.8-3.4,16.3,3.5c-7.5,0.6-13.7,1.2-19.8,1.7
			c-0.4-0.6-0.8-1.2-1.1-1.9C381.6,389.2,383.6,386.7,384.7,387.1z M600.1,350l5.1,9.5c-0.7,0.4-1.4,0.8-2.1,1.1
			c-1.7-3.2-3.4-6.4-5.1-9.5C598.7,350.7,599.4,350.3,600.1,350z M794.6,300.4c-2,2.3-5.3,3.4-8.7,5.5c-1-3.6-1.5-5.3-1.9-6.8
			c2.9-1.1,5.4-2.6,8.1-2.9C795,295.8,796.2,298.7,794.6,300.4z M803,270.4c-4.2-4-7.5-7.1-10.8-10.2
			C798.9,259.6,803.2,261.7,803,270.4z M784.6,221.6c6.1,0.9,12.3,10.5,12,17.2c-6.4-1.4-11.8-6.8-14.6-15.3
			c2.3,1.9,3.8,3.1,5.3,4.3c0.1-0.1,0.3-0.3,0.4-0.4C786.9,225.6,785.9,223.8,784.6,221.6z M776.4,256c0.2-0.9,0.5-1.9,1-3
			c8.7,4.3,16.4,9.5,20.6,19c-2.5-2-5.1-4.1-7.6-6.1c0.9,4,6.3,5.8,2.6,11.4c-3.1-2.4-6-4.5-9.5-7.2c0.2-0.1,0.4-0.2,0.6-0.3
			c0.4-0.2,0.7-0.4,1-0.5c0.7-0.4,1.3-0.6,1.8-0.9C778.3,262.7,775.7,260,776.4,256z M719.3,293.5c0.4-1.4,1.2-2.6,1.6-4
			c0.4-1.1,0.5-2.3,0.8-3.4c0.5-0.3,1.1-0.5,1.6-0.8c1.4,1.5,2.8,3.1,4.2,4.6c-0.3,0.3-0.6,0.7-0.9,1c1.5,0.4,3,0.8,4.6,1.2
			c0.2,4.7-2.4,6.7-6.3,7.5C721,300.4,718.3,297.4,719.3,293.5z M724.1,198.1c0.2-3.5,0.4-7,0.8-12.1c2.5,3.4,7.8,0.2,6.9,5
			c-0.5,2.9-3.7,5.3-5.6,7.9C725.5,198.7,724.8,198.4,724.1,198.1z M728.3,322.5c-2.3-0.8-4-3.3-5.7-5.3c-0.4-0.4-0.1-1.8,0.4-2.4
			c3.3-4.2,6.8-8.4,10.9-13.4c0.4,4.9,1.7,9.4-1.2,13.9c-0.5,0.8-0.5,1.9-0.8,2.9c0.6,0.4,1.2,0.8,1.8,1.2
			C731.9,320.5,729.6,323,728.3,322.5z M745,344.9c-4,2.9-4.4,2.4-11.2-2.1c2.4-0.8,4.3-1.5,6.8-2.3c-1.3-0.8-2.3-1.3-3.7-2.2
			c1.4-1.3,2.7-2.4,4.5-4.2c-2.3,0.1-3.9,0.2-5.6,0.3c-2.3-7.3,5.7-6.6,7.3-10.7c0.4,0.2,0.8,0.5,1.1,0.7c-0.4,1.2-0.9,2.4-1.5,4.1
			c1.8-0.4,3.4-0.8,5-1.2c-1.1,2.9-2.2,5.7-3.5,8.8h5.1c0.4,0.4,0.8,0.8,1.2,1.2C748.7,340,747.4,343.2,745,344.9z M758.4,197.6
			c2.4,2.4,4.4,5.3,6.4,7.8c0,0.5,0,0.8-0.1,0.9c-1,0.7-2.9,2-3,1.9c-2.5-3-4.8-6.2-7.1-9.3C755.9,198.3,758,197.2,758.4,197.6z
			 M757,164.9c-0.3,6.5-5.8-2.3-7.5,1.8c-0.4-3.4-0.8-6.9-1.3-11.1C752.4,158.3,757.3,159.4,757,164.9z M744.2,217.6
			c2,1.9,3.7,3.6,5.5,5.2c-0.1,0.5-0.3,0.9-0.4,1.4c-2.7-0.2-5.4-0.5-10-0.9C741.5,220.7,742.7,219.3,744.2,217.6z M744.9,272.6
			c0.4-0.1,1.6,3,2.5,4.6c-2.8,0.4-5.7,0.9-8.5,1.3l-0.9-2.8C740.3,274.5,742.5,273.2,744.9,272.6z M734.4,243.9
			c-0.7-2-1.3-3.9-2-5.9c0.8-0.3,1.6-0.7,2.3-1l3.3,5.5C736.8,242.9,735.6,243.4,734.4,243.9z M721.5,132.7
			c4.3,2.1,8.5,4.1,13.6,6.6c-2.6,1.8-4.1,2.8-5.9,4c-3.2-3.4-6.1-6.3-8.9-9.3C720.7,133.6,721.1,133.1,721.5,132.7z M717.3,135.1
			c2.4,3.4,4.7,6.8,7.1,10.2c-0.5,0.4-1.1,0.8-1.6,1.2c-2.5-3.3-5-6.6-7.5-9.9C715.9,136.2,716.6,135.6,717.3,135.1z M713.4,167.4
			c7-1.8,12.3,0,15.3,6c-5.8-1.9-11.4-4.4-17.2,0.3C709.3,170.5,709.4,168.4,713.4,167.4z M704,309.3c0.8-1.7,2.2-3.2,3.3-4.8
			c0.7,1,2.2,2.1,2,2.9c-0.4,1.6-1.6,3-3.1,5.6C705,310.9,703.8,309.8,704,309.3z M688.9,318.5c0.3-1.5,1.6-2.7,2.8-4
			c0.4-0.4,0.8-0.9,1.1-1.3c0.2,0.7,0.4,1.5,0.6,2.2c0.6,2.2,1.3,4.6,2,7.1C690.1,323.7,688.1,322.1,688.9,318.5z M692.5,229.3
			c-2.1-4.4-0.2-7.3,3-9.9C698.5,223.5,698,225.3,692.5,229.3z M689.8,208.4c2.3,2.9,3.2,4.1,4.8,6.1c-1.7,1.3-3.9,3-6.2,4.5
			c-0.1,0.1-1.9-1.6-1.8-2.1C687.4,214.2,688.6,211.7,689.8,208.4z M616.8,319.6c-5.2-2.2-7.1-5.6-5.4-9.7
			C616.4,312.9,617.9,315.5,616.8,319.6z M627.3,334.7c-0.6-2.3-1-4.6-1.4-7c1-0.2,2-0.3,3-0.5c0.5,2.4,1,4.7,1.6,7.1
			C629.3,334.4,627.3,334.8,627.3,334.7z M632.8,312.1c-3.4-0.6-7.2-0.7-10.4-2.1c-1.1-0.5-0.9-4-1.4-6.4
			C635.1,305.8,635.2,305.8,632.8,312.1z M660.6,308.8c-1.1-0.1-2.3-0.2-3.7-0.3c-0.2,1.9-0.4,3.8-0.6,5.6c-5-0.5-10.9,2.5-14.4-5.2
			c2.6-0.3,4.7-0.5,6.9-0.8l-0.7-1.1c2.5-1.7,4.9-4.4,7.6-4.7c1.8-0.2,4,3,6,4.6C661.3,307.6,660.9,308.2,660.6,308.8z M641.6,142.2
			c-1-2.1-1.9-4.2-2.9-6.3c0.4-0.5,0.8-1,1.2-1.5c1.6,0.8,4,1.2,4.7,2.5c0.7,1.3-0.3,3.5-0.5,5.3
			C643.3,142.2,642.4,142.2,641.6,142.2z M646.9,224.5c9.2,7.6,9.9,11.9,4.2,21c-2-4-4.6-7.7-5.8-11.8
			C644.6,231.2,646.2,228.1,646.9,224.5z M685.5,262.6c-2,2-3.7,4.9-5.6,5c-1.6,0.1-3.3-3-5-4.7
			C678.4,259.2,678.4,259.2,685.5,262.6z M677.3,326.2c-3.9-1.7-6.8-3-10.4-4.6C672.6,318.5,675.5,319.7,677.3,326.2z M663,209.5
			C663,209.5,663,209.5,663,209.5C663,209.5,663,209.5,663,209.5L663,209.5C663,209.5,663,209.5,663,209.5c0.8-0.4,1.6-0.9,2.9-1.7
			c0.4,4,2,7.8-4.7,8.4C661.9,213.6,662.5,211.6,663,209.5c0,0.1-0.1,0.1-0.1,0.1C662.9,209.6,662.9,209.6,663,209.5
			c-1.6,1.2-3,2.4-4.5,3.6c0.1-0.5,0.1-1.1,0.2-1.6c-1.7-0.5-3.4-1-6.2-1.8c-1.6-3.9,1.3-8.4,9.3-11.1
			C662.2,202.3,662.5,205.9,663,209.5C663,209.5,663,209.5,663,209.5C663,209.5,663,209.5,663,209.5C663,209.5,663,209.5,663,209.5z
			 M657.6,154.2c0.5-1.3,0.9-2.3,2-5.2c1.5,3.3,2.4,5.2,3.3,7.2c-2.7,0.9-5.5,2.7-7.9,2.3c-1.6-0.3-2.5-4-3.7-6.1
			c0.7-0.3,1.4-0.7,2-1C654.7,152.2,656,153.1,657.6,154.2z M652.6,108.2c-2.8-0.6-5.1-1.1-7.4-1.7C650,101.6,651.1,102,652.6,108.2
			z M652,119.7c0.5,0.9-0.9,4.1-1,4.1c-4.1-0.7-8.2-1.8-12.4-2.7C646,115.6,649.3,115.6,652,119.7z M640.3,224.7
			c0.6,2.1,0.5,4.4,0.7,6.6c-0.9,0.2-1.8,0.3-2.7,0.5c-0.7-2.4-1.5-4.8-2.2-7.2C637.6,224.6,640.2,224.3,640.3,224.7z M636.8,256.5
			c0.7-0.4,3.6,1.2,3.5,1.4c-0.9,3.7-2,7.4-3.1,11.1c-0.6-0.2-1.3-0.4-1.9-0.6C632.2,262.9,632.6,258.8,636.8,256.5z M629.4,210.4
			c-1.7,2.2-3.1,4.1-5.1,6.7c-1.2-0.7-3-1.7-4.9-2.8C623.4,206.6,624.4,206.2,629.4,210.4z M622.3,103.1c0.4,0.2,0.9,0.3,1.3,0.5
			c-1.5,11.2-1.5,11.2-5.6,10.8C619.4,110.6,620.9,106.8,622.3,103.1z M615.5,224.1c1.6-0.5,3.2-0.7,4.8-1c0.1,0.9,0.5,2.4,0.1,2.7
			c-1.6,1-3.5,1.7-5.3,2.2c-0.6,0.2-1.4-0.7-2.9-1.6C613.8,225.2,614.6,224.4,615.5,224.1z M614.8,231.1c0,0.6,0,1.2,0.1,1.7
			c-3.1,1.5-6.2,3.3-10-1.7H614.8z M597.8,162.9c2.6-1.1,5.4-2.6,7.1,1.2c0.3,0.7,0.1,1.7-0.1,2.6c-0.2,0.6-0.3,1.2-0.4,1.7
			c-2.4-1.2-4.9-2.4-7.3-3.6C597.2,164.2,597.5,163.5,597.8,162.9z M594.9,167.8c2.6,0.7,5.2,1.5,8.3,2.4c-4.8,6.7-6.3,0.6-9,0.2
			C594.5,169.5,594.7,168.7,594.9,167.8z M596.9,212.5c1.1-1.1,3.3-1,5-1.4c0.2,0.6,0.3,1.3,0.5,1.9c-1.6,2.5-3.1,5.1-4.8,7.5
			c-0.5,0.7-2,1.3-2.6,1.1c-1-0.4-2.6-2-2.4-2.4C593.8,216.8,595,214.3,596.9,212.5z M565.4,285.2c-2.5-4.1-5.1-8.1-7.6-12.2
			c0.7-0.4,1.4-0.8,2-1.2l7.2,12.3C566.5,284.5,565.9,284.9,565.4,285.2z M556.2,189.5c2,4.8,3.4,8.4,5.4,13.1
			C552,198.4,552,198.4,556.2,189.5z M569.6,223.5c-2.1-1.7-4.2-3.3-6.3-5c1.3-1.3,2.5-2.6,3.8-3.9c1.7,2.2,3.3,4.4,5,6.5
			C571.3,222,570.4,222.8,569.6,223.5z M583,294c-0.6,0.1-1.2,0.2-1.7,0.3c-1.2-2.4-2.4-4.8-3.7-7.2c0.5-0.6,1.1-1.1,1.6-1.7
			c1.8,0.8,4.6,1.3,5,2.6C584.8,289.6,583.5,291.9,583,294z M579.5,239c1.1-3,2-5.6,2.9-8.3c0.6-0.3,1.3-0.5,1.9-0.8
			c1.5,2.3,3,4.6,4.9,7.7C585.3,238.2,582.7,238.6,579.5,239z M583.7,128.9c0.6,0.5,1.2,1,1.8,1.5c-1.1,1.9-1.8,4.2-3.4,5.5
			c-1.4,1.1-3.8,1-5.7,1.4c-0.2-0.6-0.5-1.3-0.7-1.9C578.4,133.2,581.1,131.1,583.7,128.9z M575.5,151.2c1.8,2.6,3.5,3.9,3.6,5.3
			c0.1,0.9-2.1,2.8-3.3,2.8c-1.2,0.1-3.5-1.7-3.5-2.5C572.3,155.4,573.8,153.9,575.5,151.2z M575.4,204.8c1.3,1.5,3.8,3.2,3.7,4.6
			c-0.3,3-2,5.8-3.1,8.7c-1.6-0.8-3.6-1.2-4.7-2.4c-0.7-0.8-0.4-2.9,0.1-4.1C572.3,209.5,573.7,207.6,575.4,204.8z M560.4,122.9
			c-0.4-0.5-0.9-1-1.3-1.5c3.6-3,7.2-6,10.8-8.9c0.4,0.5,0.9,1,1.3,1.6C569.8,119.5,563.7,119.7,560.4,122.9z M557.2,82.9
			c1.1-1.4,1.8-3.3,3.2-4.3c1.7-1.2,3.9-1.9,6-2.3c0.5-0.1,1.2,1.8,2.1,2.6c0.6,0.5,1.5,0.6,2.2,0.9c-2.3,10.2-10.1,7.9-18.5,8.6
			C554.5,85.9,556,84.5,557.2,82.9z M552.3,220.9c1.7,2.2,3.6,4.3,5,6.7c0.4,0.7-0.3,2.1-0.6,3.2c-0.9-0.3-2.3-0.4-2.6-1
			c-1.4-2.5-2.5-5.2-3.7-7.9C551,221.6,551.7,221.3,552.3,220.9z M473.5,160.9c1.7-1.1,3-2,5.7-3.8c0.8,3.2,1.4,5.5,2,7.9
			c-0.6-0.2-1.3-0.3-1.9-0.5c0.1,2.1,0.2,4.2,0.4,6.3c-0.6,0.2-1.2,0.3-1.8,0.5C476.4,167.8,474.9,164.4,473.5,160.9z M491.4,192.7
			c-9.1,2.7-10,2.1-11.3-6.9C485.5,186,491.6,184.4,491.4,192.7z M479.5,234.9c0.4-0.4,0.9-0.8,1.3-1.2c0.4-2.9,0.7-5.8,1.2-9
			c8,2,6.9,10.9,10.9,15.9C488.4,238.8,484,236.8,479.5,234.9z M497.7,210.4c-3.8,1.4-5.8-0.4-5.5-3.8c0.1-1.4,2.4-2.5,3.7-3.8
			c0.6,1.3,1.4,2.6,1.8,4C498,207.9,497.7,209.2,497.7,210.4z M499.5,274.6c0.9-1.9,1.8-3.9,3-6.5c2.1,3.5,3.2,5.5,4.6,7.9
			C503,279.5,501,275.4,499.5,274.6z M510.6,253.1c-3.4-5.2-6.4-9.7-9.2-13.9c2.3,0,4.5-0.5,6.3,0.1c1.4,0.5,3.3,2.2,3.5,3.5
			C511.6,245.6,510.9,248.5,510.6,253.1z M512.9,225.8c-3.4-0.6-7.3-0.8-7.6-5.2c-0.3-4,2.3-6.7,6-8c1.2,2.8,2,4.9,2.7,6.7
			C513.7,221.4,513.3,223.4,512.9,225.8z M525.2,262.9c-1.9-2.1-3.7-4.2-4.4-5c0.8-4,1.3-6.6,1.9-9.3
			C528,252.4,529.2,257.6,525.2,262.9z M530.4,212.3c-3.3-2.2-8.8-2.7-7.3-8.3c2.3-0.6,4.3-1.2,7.8-2.1c0.6,2.7,1.4,5.9,1.9,9.1
			C532.9,211.4,530.8,212.6,530.4,212.3z M526.2,118.6c3.4-2.5,6.7-4.9,10.9-8C535.2,117.1,532.6,119.2,526.2,118.6z M539.6,262.3
			c8.8,1.1,6.9,8.9,9.2,14C541.6,274.8,539.6,269.5,539.6,262.3z M539.6,165.3c2.4-0.8,3.9-1.3,6.3-2.1c0.8,3.5,1.5,6.8,2.2,10
			c-0.7,0.3-1.4,0.7-2.1,1C543.9,171.4,542,168.6,539.6,165.3z M526.2,87.4c1.5-1.5,4.3-2.7,4.6-4.4c1.9-10.9,12.6-3.5,16.5-10
			c0.5,0.8,1,1.6,1.6,2.5c-2.2,1.5-4.3,3-6.5,4.5c0.3,0.3,0.6,0.7,0.9,1c0.9,0,1.9-0.1,2.9-0.2c-3.5,6.8-11.2,10.1-14.8,6.2
			c-2,1.2-4.1,2.4-6.2,3.7c-0.2-0.2-0.4-0.4-0.7-0.6C525,89.1,525.4,88.1,526.2,87.4z M521.6,179.1c3.4,0.1,6.9,0.7,10,2
			c1.2,0.5,1.4,3.4,1.8,4.6c-4.4,0-8.1,0.3-11.6-0.1c-1.4-0.2-2.6-2-3.9-3.1C519.2,181.3,520.4,179.1,521.6,179.1z M514.8,180.2
			c0.4,2.3,0.1,4.8,0,7.2c-0.9,0.1-1.9,0.2-2.8,0.2c-0.7-2.6-1.5-5.2-2.2-7.8C511.5,180,514.8,179.8,514.8,180.2z M508.7,82.9
			c1.1,5.7-0.8,8.5-7.4,11.7c-0.5-0.4-1-0.7-1.5-1.1C502.7,90.1,505.5,86.7,508.7,82.9z M499.7,64.4c0.4-0.2,2,1.1,1.9,1.4
			c-0.5,2-1.4,4-2.3,6.7c-2.2-1.9-3.3-2.8-5.3-4.5C496.1,66.5,497.9,65.3,499.7,64.4z M490.2,182.8c1.7,0.7,4,0.8,5,2.1
			c0.8,1.1,0.2,3.4,0.2,5.1c-0.6,0.1-1.2,0.2-1.7,0.3c-1.4-2.1-2.8-4.2-4.2-6.3C489.8,183.6,490,183.2,490.2,182.8z M484.5,77.4
			c0.9,0.2,1.8,0.4,2.8,0.6c-0.7,3-1.3,6.1-2,9.1c-1-0.2-1.9-0.4-2.9-0.5C483.1,83.5,483.8,80.4,484.5,77.4z M473.5,65.7
			c2,1.8,3.8,3,5,4.7c1.3,1.8,2.1,3.9,3.4,6.6c-3.8,1-6.8,1.7-10.1,2.6c-1.2-3.3-2.2-6.2-3.3-9.3c-1.3,0.4-2.6,0.8-4.4,1.3
			C465.4,65,471.2,67.6,473.5,65.7z M461.5,89.3c1.3,2,2.6,4,4,6.2c0.8-0.5,1.8-1.3,4.1-2.9c-1.1,4.5-1.9,7.5-2.7,10.8
			c-0.1,0-0.3,0.2-0.6,0.2c-6.4,0.7-6.3,0.7-6.3-6.8c0-2.3-0.7-4.5-1.1-6.8C459.8,89.8,460.7,89.5,461.5,89.3z M459.1,130.2
			c2.2,0.6,4.7,0.8,6.4,2.1c3.2,2.4,4.3,5.5,0.4,9.7c-0.9-2.7-1.6-4.6-2.4-7.2c-1.1,1.7-1.9,2.8-2.9,4.3c-0.7-0.8-1.8-1.5-1.8-2.2
			C458.6,134.7,459,132.5,459.1,130.2z M465.6,159.8c0.2,0.6,0.5,1.1,0.7,1.7c0.4-1.3,0.8-2.5,1.6-5c1.9,2.4,4.1,4,4.7,6
			c0.4,1.4-0.8,4.3-2.1,5.1c-2.5,1.6-5.6,2.1-9,3.3c-2.3-2.6-9-3.7-4.9-9.2C458,159.9,462.5,160.4,465.6,159.8z M453.4,87.1
			c0.8,0.1,1.5,0.2,2.3,0.4c2.1,4.4,0.1,8.2-1.6,12c-0.9-0.2-1.8-0.3-2.6-0.5C452.1,95,452.7,91.1,453.4,87.1z M452.4,218.8
			c1.3,0.8,2.6,1.6,4.3,2.7c-1.1-2.7-2-4.8-2.9-7c0.6-0.4,1.1-0.8,1.7-1.2c2.5,3,4.9,6,7.4,9c0,0,0,0,0,0c-2.3-4.5-4.5-9-6.8-13.5
			c0.2-0.2,0.4-0.3,0.6-0.5c1.1,1.2,2.2,2.4,3.4,3.8c0.3-0.7,0.6-1.4,0.8-2.1c0,0,0,0,0,0l0,0c3.6,2.6,4.5,8.4,2,12.2
			c0,0.1,0.1,0.1,0.1,0.2c0,0-0.1-0.1-0.1-0.1c0.2,2.6,0.4,5.2,0.7,8.9c0,0.5,0.1,1.1,0.1,1.7c-5.1-5-8.9-8.8-12.7-12.6
			C451.5,219.8,451.9,219.3,452.4,218.8z M447.3,91.6c3.2,5.1,5,10.1,0.7,14.9c-0.7,0-1.5-0.1-2.2-0.1
			C446.3,101.5,446.8,96.6,447.3,91.6z M447.1,240c3.1,3.1,6.2,6.2,9.3,9.3c-0.6,0.6-1.3,1.2-1.9,1.8c-3.2-2.9-6.4-5.9-9.6-8.8
			C445.6,241.5,446.4,240.7,447.1,240z M385.1,280.8c-9.8-2.8-5.4-10.9-6.9-16.7C385,265,387.5,271.1,385.1,280.8z M377.5,231.3
			c3.1,0.3,9.9,7.9,12.7,14.3C384.1,243.4,381.3,240.2,377.5,231.3z M380.6,226.6c0.4-0.4,0.7-0.7,1.1-1.1c1.3,1.3,2.5,2.9,3.9,4
			c2.5,2,5.4,3.7,7.9,5.7c1.2,1,1.9,2.5,3.2,4.5C386.1,239.8,384.7,231.8,380.6,226.6z M384.3,221.2c4.5,3.9,9,7.8,14.3,12.4
			C388.5,234.5,386.7,227.5,384.3,221.2z M396.9,177.2c-0.3-4.9,3.4-7.9,8-6.1c1.1,0.4,1.7,2.5,2.2,4c0.6,1.7,0.9,3.6,1.4,6
			c-4.8,1.1-2.1,3.4-0.4,5.3c-4.8,6.6-4.3,6.2-8.9-0.5C397.1,182.9,397.1,180.3,396.9,177.2z M408,284.1c-2.7-0.7-5.4-1.4-8.1-2.1
			c0.5-1.2,1.1-3.4,1.4-3.4c2.6,0.5,5.1,1.3,7.7,2C408.6,281.8,408.3,283,408,284.1z M429.5,246.8c-3.5-2.1-6.4-5.1-11.3-3.6
			c-1.2,0.4-3.5-2.9-5.2-4.4h12.8c-2.2-3-3.2-4.5-4.3-6c0.4-0.4,0.8-0.8,1.2-1.2c2.2,2.2,4.9,4.2,6.4,6.8c1.5,2.6,1.9,5.8,2.9,9.2
			C431.2,247.4,430.2,247.3,429.5,246.8z M425.9,204c-1.9-3-1.3-7.5-2-12c10.2,2.5,13.8,8.9,15,17.7
			C433.8,209.2,428.6,208.1,425.9,204z M426.4,182.1c1.8,1.1,3.6,2.1,5.5,3.3c-1.3-1.8-2.5-3.4-3.7-5c0.4-0.5,0.9-1.1,1.3-1.6
			c1.9,1.5,4.3,2.7,5.6,4.6c2.3,3.3,3.9,7.2,5.1,9.4c-2.8-0.3-5.2-0.6-7.6-0.8c1.4,2.1,2.8,4.2,4.2,6.3c-4-4.9-8-9.8-12-14.6
			C425.4,183.2,425.9,182.7,426.4,182.1z M423.9,148.1c-3.5,0-6.3,0.3-8.9-0.1c-2.6-0.4-5.1-1.6-8.2-2.7c3.7-4.9,7.6-6.3,11.9-4.4
			C421.4,142.1,425.1,143.8,423.9,148.1z M416.8,123.1c-0.7,1.4-4.4,1.3-6.7,1.9v-10.3C414.8,117.4,419.1,118.5,416.8,123.1z
			 M404.7,84.7c2.3-4.1,6.4-3.9,10.8-1.3c-2.7,3.6-5.4,7.1-8.1,10.6c-0.8-0.2-1.6-0.4-2.4-0.6C404.8,90.5,403.5,86.9,404.7,84.7z
			 M403.7,155.6c2.1,1.7,3.6,4.1,5.3,6.3c-0.5,0.6-1.1,1.1-1.6,1.7c-2.7-1.1-5.5-2.1-9.4-3.7C400.5,158,403.3,155.3,403.7,155.6z
			 M392.7,113.2c0.7-0.1,1.4-0.2,2.1-0.3c0.8,4.5,1.7,9,2.4,13.5c0.1,0.5-1.3,1.8-1.7,1.7c-1-0.4-2.7-1.3-2.7-2
			C392.6,121.8,392.7,117.5,392.7,113.2z M382.7,163.4c-1.5-1.3-2.7-2.2-4.3-3.7c1.6-0.4,2.6-0.6,4-0.9c-0.5-1.4-1-2.8-1.4-4.2
			c0.4-0.5,0.9-1,1.3-1.6c2.6,1.9,5.3,3.8,7.9,5.7c-1.1,1.8-2.6,3.1-2.3,3.8c1.6,4.7-1.5,7.8-4.5,9.3c-2.1,1.1-5.8-0.9-8.6-1.5
			C375.2,163.2,375.8,162.7,382.7,163.4z M132.5,429.8c-1.3-2.7-2.7-5.1-3.7-7.6c-0.3-0.7,0.4-2,1-2.7c0.4-0.4,1.7-0.1,2.3,0.2
			C135.6,421.7,136,426.2,132.5,429.8z M136.7,347.6c-1.4,1.2-2.9,2.5-4.5,3.9c-2.1-2.4-5.6-4.5-2.1-7.5c1.1-0.9,4.5,0.9,6.8,1.5
			C136.8,346.2,136.7,346.9,136.7,347.6z M164.6,280.6c-0.1,1.1-0.1,2.3-0.2,3.4c-2.4,0.2-4.9,0.4-7.3,0.7c0.3-1.8,0.7-3.5,1-5.3
			C160.3,279.8,162.4,280.2,164.6,280.6z M154,261.5c0.1-0.5,0.7-0.8,1.6-1.2c0.4-0.2,0.9-0.3,1.3-0.5c0.4-0.2,0.9-0.3,1.2-0.5v7.7
			c-1,0.2-2,0.3-2.9,0.5C154.7,265.4,153.7,263.4,154,261.5z M156.6,286.2c1.7,1.2,3.1,2.8,4.6,4.3c-0.9,0.7-2,2.1-2.6,1.9
			c-1.8-0.6-3.5-1.7-6-3.2C154.6,287.7,156.2,286,156.6,286.2z M161.3,329.6c-4.7-3.3-8.3-5.8-12.3-8.7
			C155.6,316.6,160.6,320,161.3,329.6z M144.2,274.9c-2,1.6-2.4,5.2-3.8,8.3c-4.1-5.2-2.7-10.5,3.8-16
			C149.2,271.2,148.9,271.2,144.2,274.9z M147.5,355.8c0.2-4,2.1-3.7,4.5-2.6c2.2,1.1,4.2,2.6,6.3,3.9c-0.5,0.2-1,0.5-1.5,0.7
			c1,3,2,6,2.9,9C152.2,367.2,147.2,362.4,147.5,355.8z M155.4,464.9v-7.2c0.8-0.1,1.6-0.2,2.5-0.3c0.5,2.2,1,4.3,1.2,6.5
			C159.1,464.1,156.7,464.6,155.4,464.9z M161.4,403.1c-1.6-3.5-3-5.4-3.2-7.4c-0.1-1,2.5-3.4,2.8-3.2c2,1.1,4.3,2.5,5.3,4.4
			C166.6,397.6,163.9,400,161.4,403.1z M186.9,296.8c0.1,0.9,0.3,1.7,0.4,2.6c-3,1.2-6,2.5-9.9,4.1c1-3.2,1.5-4.7,2-6.1
			c-0.3-0.6-0.6-1.3-1-1.9C181.3,295.9,184.1,296.4,186.9,296.8z M186.1,415.2c-0.8,2.3-1.2,3.7-2.1,6.3c-2.2-2.8-4-5.1-5.8-7.4
			c0.4-0.5,0.7-1.1,1.1-1.6C181.4,413.4,183.6,414.2,186.1,415.2z M180.2,400.9c4.1,1.3,8.1,7.1,7.5,10.5c-0.1,0.7-1.1,2-1.4,1.9
			c-1.1-0.2-2.4-0.7-3-1.5c-1.1-1.5-2.1-3.3-2.6-5.1C180.3,405,180.4,403.2,180.2,400.9z M172.3,252.9c0.5-0.2,1-0.3,1.5-0.5
			c2.1,4.7,4.1,9.4,6.5,14.8C174.7,265,171.7,258.9,172.3,252.9z M170.1,376.9c0.8-2.1,1.9-4.1,2.9-6.2l1.9-0.5
			c0.5,1.8,1.5,3.7,1.3,5.5c-0.3,1.8-1.6,3.5-2.8,5c-0.2,0.3-2.1-0.4-2.8-1C170.1,379.1,169.8,377.7,170.1,376.9z M170.4,466
			c2-0.7,3.7-1.4,5.8-2.2c-0.9-1.2-1.8-2.5-3.2-4.5c7.5-1.3,5.7,5.9,10,7.6C177.5,469.9,173.7,472.6,170.4,466z M180.8,443.3
			c0.2-0.9,2.2-2.4,2.7-2.2c1.7,0.9,3.4,2.1,4.4,3.7c0.8,1.2,0.5,3.2,0.7,5.3C185.7,450.7,180.1,446.2,180.8,443.3z M178.3,311.9
			c5.3-6.9,9-3.7,12.1,1.7C184.9,317.7,181.5,317.4,178.3,311.9z M297,475.5c-1.3-1.5-2.5-3-4.4-5.2c2-1.9,3.4-3.2,4.7-4.5
			c1.1,1.6,3.1,3.3,3.1,4.9C300.4,472.4,298.3,474,297,475.5z M313.8,367.4c-0.3,0.9-2.1,1.4-3.2,2.1c-0.5-1.4-1.2-2.8-1.6-4.2
			c-0.7-2-1.4-4-1.7-6.1c-0.2-1.1,0.6-2.3,0.9-3.7c2.3,3.1,4.1,4.9,5.1,7C314,363.9,314.2,365.9,313.8,367.4z M320.8,394.6
			c-0.2,0.4-0.4,0.9-0.7,1.3c-2,0.4-4,0.8-6.8,1.4c-0.1-1.6-0.3-3.4-0.6-6.5C316.3,392.5,318.6,393.6,320.8,394.6z M307.5,421.8
			c1.1,0.1,2.2,0.1,3.3,0.2c0.2,2.6,0.4,5.2,0.6,7.8c-1.5-0.5-4.1-0.8-4.2-1.6C306.6,426.2,307.3,423.9,307.5,421.8z M304.9,418.1
			c-0.1-2.2,0.4-4.4,0.7-6.6c0.7,0.1,1.4,0.2,2.1,0.4c0.5,1.8,1.2,3.7,1.3,5.5c0,0.9-1.1,1.9-1.6,2.9
			C306.5,419.5,305,418.9,304.9,418.1z M306.4,265.6c-4.4-3.7-5.6-8.3-4.4-14.3C309.8,256.2,311.1,260.7,306.4,265.6z M312.6,307.3
			c-1.4-0.1-2.7-2-3.5-4.4h7c0.2,0.5,0.4,0.9,0.6,1.4C315.3,305.4,313.9,307.3,312.6,307.3z M308.9,146.3c-1.5-0.3-2.6-2.6-4.4-4.5
			c3.8-1,6-1.6,9.3-2.6c0,1.6,0.6,3.7-0.2,4.7C312.7,145.2,310.4,146.6,308.9,146.3z M307.4,169.1c-0.2,1.3-0.1,2.8-0.7,3.7
			c-1.4,2-3.2,3.7-5.4,6.2c0,0.1,0.8,1.4,2,3.3c-2.4,0.1-4.7,0.9-6.3,0.2c-1.7-0.8-3.7-3-3.8-4.7c-0.1-1.6,1.7-3.7,3.2-5
			c2-1.7,4.3-3.2,6.7-4.2C304.2,168.2,305.9,169,307.4,169.1z M297.3,285.6v6.9c-1.5-0.4-4.1-0.6-4.1-1.1c-0.3-2,0.4-4,0.6-6.1
			C295,285.4,296.2,285.5,297.3,285.6z M298.5,294.2c-0.2,3.2-0.3,4.9-0.5,8.3c-2.4-1.7-4.1-2.7-5.5-4.1c-0.5-0.5-0.5-2.6-0.3-2.7
			C294,295.1,295.9,294.8,298.5,294.2z M299.5,395.1c-0.2-0.7,1.6-1.9,3.1-3.8c1.6,2,2.6,3.1,3.5,4.3c-1.2,0.8-2.5,2.4-3.7,2.3
			C301.4,397.8,299.9,396.3,299.5,395.1z M310.7,469.3c-0.4-1.2,1.3-4.2,2.4-4.5c5.8-1.4,3.6,4.8,7.7,6.8
			C315.2,473.6,312,473.2,310.7,469.3z M338.9,461.8c-0.7-0.1-1.3-0.3-2-0.5c-0.7-0.2-1.3-0.5-2-0.7c0.2-0.4,0.3-0.9,0.5-1.3
			c0.2-0.8,0.5-1.5,1-1.7c1.2-0.5,3.1-0.6,4.2-0.1c1.3,0.7,2.1,2.3,3.5,3.9C342,461.5,340.4,461.9,338.9,461.8z M343.9,419.4
			c-0.1,0.8-1.2,1.9-2,2.1c-0.7,0.2-2-0.4-2.6-1.1c-2.7-3.1-5.2-6.4-8.1-10C337.3,408.5,344.6,413.9,343.9,419.4z M355.5,456.9
			c-0.1,0.2-2.4,0.1-2.9-0.4c-1.5-2-2.7-4.2-4.6-7.4c1.6,0.1,3-0.2,4,0.4C355,451,356.6,453.4,355.5,456.9z M370.2,365.9
			c0,0.3-0.1,0.6-0.1,0.9c-0.1,1-0.1,2.1-0.3,2.1c-2.2,0.2-4.4,0.1-6.7,0.1c0-1.2,0.1-2.3,0.1-3.5
			C365.6,365.7,367.9,365.8,370.2,365.9z M357.8,356.8c0-0.1,2.4-0.1,3.4,0.4c1.9,1.2,3.6,2.8,6.9,5.6c-4,0.9-6.6,1.6-9.2,1.9
			c-0.5,0.1-1.8-1.4-1.8-2.1C357,360.7,357.3,358.7,357.8,356.8z M355.6,386.6c1.5,2.1,3.1,4.1,5.5,7.4c-2.4,0.4-5.5,1.3-5.7,0.9
			c-1.1-2.4-1.6-5-2.3-7.6C354,387.1,354.8,386.8,355.6,386.6z M354.8,437.8c-3.7,1.8-6.6,3.3-9.5,4.7c-0.4-0.5-0.7-1-1.1-1.5
			c2.2-2.4,4.4-4.8,7-7.7C352,434.4,353.1,435.8,354.8,437.8z M351.4,390.5v6c-10.3,0.8-11,0.4-8.8-6H351.4z M338.7,354.9
			c1-0.3,2.8-0.4,3.3,0.2c1.7,2.1,3,4.6,4.5,7c-0.8,1.4-1.2,2.8-1.7,2.9c-1,0.1-2.5-0.4-3-1.2c-1.5-2.1-2.7-4.4-3.7-6.7
			C337.7,356.5,338.2,355,338.7,354.9z M338,399.2c-1.6-1.1-3-2-4.3-3c-3.4-3.7-3.4-3.7,3.1-7.2C340.2,392.1,340.7,395.4,338,399.2z
			 M329.8,361.7c1.8,2.2,3.1,3.8,4.4,5.3c-1.3,1-2.9,3-3.8,2.7c-1.7-0.6-3.2-2.3-4.1-3.9C326,365.3,328.2,363.6,329.8,361.7z
			 M325.4,439.9c3.1,5.2,6,2.2,8.3,0.5c3.1-2.2,5.8-2.5,9.8,0.4c-3.6,1.6-6.6,3-9.6,4.2c-5.8,2.3-11.5,4.7-17.4,6.4
			c-1.9,0.5-4.4-1-6.7-1.6c0-0.5,0-1,0-1.5c-1.3,1.1-2.5,2.2-4.7,4.2c-0.7-2.4-1.3-4.2-1.8-6c1.7-0.4,3.4-0.8,5-1.4
			C313.8,443.4,320.9,447.6,325.4,439.9z M324.6,418.8c0.4,0.9,0.9,2.1,0.6,2.6c-0.5,0.7-2.4,1.3-2.6,1.1c-1.6-2-3.2-4.2-4.2-6.6
			c-0.2-0.4,2.5-2,3.6-2.9C323.2,415.8,323.9,417.3,324.6,418.8z M325.6,313.1c-0.8-4.6-0.2-7.8,5-9.3
			C332.6,309.2,330.1,311.4,325.6,313.1z M343.1,312c-0.7-4.4-1.2-7.8-1.8-12C348.3,302.7,348.6,304.6,343.1,312z M353.5,263.8
			c5.9,2.2,4.6,8.4,8.2,13.1C354.6,274.9,353,271.9,353.5,263.8z M370.6,104.3c0.6,0.2,0.6,2.7,1,4.9c-3-1-4.9-1.6-6.9-2.3v4.4
			c-2.3-1.6-4-2.7-6.4-4.3C362.4,103.7,366.4,103,370.6,104.3z M357.9,150.7c1-2.8,3.5-5.1,5.4-7.7c1.7,1.4,3.4,2.8,5.1,4.2
			c-0.3,0.5-0.6,1.1-0.9,1.6c-1.2,0.2-2.3,0.4-3.8,0.6c-0.3,1.8-0.7,3.6-1.4,7.4C360.2,154,357.5,151.8,357.9,150.7z M359.8,218.3
			c-0.2,3.1-3.3,6.3-5.9,8.7c-0.7,0.6-4-1.6-5.2-2.2c1.7-5.5,3-9.9,4.4-14.3c0.6-0.3,1.1-0.6,1.7-1
			C356.5,212.5,360,215.5,359.8,218.3z M351.1,124c0.6-0.2,2,2.1,3.5,3.7c-3.7,0.7-6.2,1.1-8.7,1.6c-0.2-0.6-0.4-1.2-0.7-1.8
			C347.1,126.3,349,124.7,351.1,124z M352.4,188.4c-9.7-1.2-12.3-2.8-14.8-8.7C343.5,178.8,350.1,182.7,352.4,188.4z M337.4,274.5
			c-0.5,0.5-1.1,0.9-1.6,1.4c-3.1-3.7-6.3-7.4-9.4-11c0.6-0.5,1.1-1,1.7-1.4C331.2,267.1,334.3,270.8,337.4,274.5z M329.5,212.4
			c-5.6,1.5-8.3-1.2-9.4-6.7C324.9,204.2,328,206.5,329.5,212.4z M322.4,335.4c-7.3,0.7-8.6-0.8-6.8-8.2
			C318.2,330.4,320.1,332.6,322.4,335.4z M316.8,297.9c-0.7,1.4-1.8,2.5-3.1,4.2c-1.7-1.6-2.8-2.6-3.8-3.6c1.5-0.9,3-2,4.6-2.5
			C315.1,295.8,316.9,297.6,316.8,297.9z M308.4,119c4.2,0.1,7.1,1.9,6.9,7.6c-2.7-2.1-5.3-4.1-8-6.2C307.7,120,308,119.5,308.4,119
			z M293.1,124.7c1.2-0.6,2.8-0.3,4-1c5.4-2.8,7.5-1.6,8.1,5.8c-4.2,0-8,0.1-11.8-0.1c-0.9-0.1-2.3-1.4-2.3-2.2
			C291,126.4,292.2,125.2,293.1,124.7z M294.5,206.9c-3-3.5-5.6-6.5-8.8-10.3C294.2,198,294.9,198.8,294.5,206.9z M277.9,145.9
			c1.8,1.3,3.5,2.7,5.3,4c-0.7,0.8-1.7,2.5-1.9,2.4c-1.9-1-3.6-2.2-5.4-3.4C276.6,147.9,277.2,146.9,277.9,145.9z M269.3,153.3
			c4.5,4.7,4,6.7-3.3,11c-0.8-1.4-1.7-2.8-2.2-3.6C265.9,157.9,267.5,155.7,269.3,153.3z M255,276.3c8,4.1,8,4.1,5.8,11.1
			C251.4,287.7,251.1,287.1,255,276.3z M263.6,339.3h-10.1c0.1-1.2-0.1-3.3,0.4-3.5C257.1,334.6,260.7,332.9,263.6,339.3z
			 M249.1,338.3c5.6,1.6,7.2,5.6,6.8,11.2C249.6,346.9,248.2,344.6,249.1,338.3z M259.6,355.3c-5.1,5-6,5-10.6-0.6
			c1.1,0.3,2.1,0.7,3.2,1c0.9-1.5,1.8-3,3.4-5.9C257.2,352,258.4,353.6,259.6,355.3z M250.2,386.3c-6-1.5-4.5-5.2-3.6-8.9
			C251.4,379.3,251.7,380.1,250.2,386.3z M236.5,317.9c3.1,1.2,5.7,2.3,9.6,3.8C240.2,324.6,238.4,323.7,236.5,317.9z M235.1,374.7
			c-1.6-1.7-3.3-3.4-4.9-5c2.5-1.9,5-3.9,8.1-6.3c1.4,2,2.3,3.2,2.8,4c-3.7,0.8-6.8,1.4-9.8,2.1C232.6,371.2,233.9,373,235.1,374.7z
			 M230.1,266.2c2.3,0,4.5,0.3,6.8,0.5c0,0,0-0.1,0-0.1c0,0,0.1,0,0.1,0c-0.2-1.4-0.4-2.9-0.6-4.3c0.6-0.3,1.2-0.6,1.8-0.9
			c-1.6-0.9-3.1-1.7-4.7-2.6c4-0.5,8.6,3.5,7.7,5.8c-0.1,0.3-0.3,0.5-0.6,0.7c-0.2,0.1-0.3,0.2-0.5,0.3c0,0-0.1,0-0.1,0
			c-0.9,0.4-2,0.6-2.9,1c0,0.1,0,0.1,0,0.2c0,0-0.1,0-0.1,0c0.1,1.7,0.2,3.4,0.3,4.9c-0.7,0.4-1.2,0.8-1.3,0.7
			c-2.1-1.1-4.2-2.1-6.2-3.5C229.3,268.6,229.9,266.2,230.1,266.2z M223.1,237.8c1.5,0.6,2.3,2.6,2.5,2.9c-3.1,2.9-5.1,4.7-7.6,6.9
			c-1.3-1.2-2.8-2.6-5-4.6C217.7,242.3,217.8,235.5,223.1,237.8z M223.9,360.3c-1.3,1.5-2.5,3-4.4,5.2c-1.5-1.9-3.4-3.5-3.1-4.1
			c0.8-1.6,2.3-3.3,3.9-3.9C221,357.2,222.6,359.3,223.9,360.3z M209.3,318.4c1.6,2.3,3.5,4.5,4.6,7.1c0.3,0.8-1.5,2.5-2.3,3.8
			c-0.8,0.1-1.5,0.1-2.3,0.2c-1.5-2.1-3.8-4-4.1-6.2C205,321.8,207.8,320,209.3,318.4z M204.6,307.4c0.7-0.5,1.3-1,2-1.5
			c2.2,1.5,4.3,3,6.5,4.5l0.1,1.8c-2.2,0.3-4.8,1.4-6.6,0.7C205.3,312.4,205.2,309.3,204.6,307.4z M208.8,209.7
			c1.7,1.5,3.4,3,5.1,4.5c-0.4,0.5-0.7,1-1.1,1.5c-2-0.3-4.1-0.6-7.5-1C206.7,212.7,207.7,211.2,208.8,209.7z M199.4,247.8
			c0.7-0.6,2.2-1.1,2.8-0.8c1.9,1.3,3.4,3,5.1,4.5c-0.5,0.7-0.9,1.3-1.4,2c-2.3-1.1-4.6-2.2-6.7-3.5
			C198.9,249.9,199,248.1,199.4,247.8z M193.3,375.1c2.2-0.2,4.5,0.1,6.8,0.3c0,1,0,2,0,3.1c-2.5,0.3-5,0.6-7.5,0.9
			C192.9,377.9,192.9,375.2,193.3,375.1z M199,461.7c-3.8-2.6-4-4.3-0.7-9C202.1,455.5,200.9,458.5,199,461.7z M200.8,420
			c-0.7,0.9-2.8,1.6-3.8,1.2c-0.8-0.3-1.7-2.5-1.4-3.6c0.5-1.9,1.9-3.6,3.4-6.3c1.6,0.9,3.3,1.8,4.8,2.6
			C202.6,416.4,202,418.5,200.8,420z M207.1,358.5c-1.7-1.5-3.8-2.8-4.9-4.6c-0.6-1.1,0.1-3.4,1-4.7c0.6-0.8,2.8-1.2,3.8-0.7
			c0.9,0.4,1.5,2.2,1.6,3.4c0.2,1.6-0.2,3.3-0.4,5C207.9,357.4,207.5,358,207.1,358.5z M212.8,472.4c-5.4-1.4-5.2-4.5-2.6-8.7
			C213.2,466.2,216,468.4,212.8,472.4z M214,434.3c-1.2,0.7-4.5,0.2-4.7-0.3c-0.6-2.1-0.7-4.6-0.1-6.6c0.5-1.8,2.3-3.3,4.1-5.6
			c0.9,2.5,1.3,4.6,2.5,6.3C217.7,431,216.1,433,214,434.3z M217,394.1c3.1-1.2,4.9-1.9,6.7-2.5c0.3,2.2,0.6,4.5,1,8
			C221.8,397.6,220.1,396.4,217,394.1z M225.9,492.1c-0.5,1.3-2.6,3.2-2.9,3c-1.6-0.9-4-2.5-3.9-3.7c0.3-3.5,1.5-7,2.5-10.5
			c0.2-0.6,1.2-1,2.9-2.4c1.3,2.4,3.1,4.3,3.2,6.3C227.9,487.2,226.9,489.8,225.9,492.1z M229.2,443.4c-0.9,0.9-2.8,0.8-4.3,1.2
			c0.2-2.3,0.3-4.6,0.5-7.8C229.8,439,231.8,440.7,229.2,443.4z M241.4,460.3c-0.4,2.1-3.2,3.7-4.9,5.6c-4.3-5.1-4-7,1.7-11.7
			C239.4,456.3,241.8,458.6,241.4,460.3z M232.7,411.1c6.2-0.9,10.3,3.9,8.9,9.8C236.7,419.4,235.2,415.3,232.7,411.1z M245.6,486.2
			c-4.8-3.3-5-4.8-1.6-8.9c1-1.2,1.4-2.8,2.2-4.2c0.7-1.1,1.7-2.1,2.6-3.2c0.8,1,2.2,2.1,2.2,3.1C250.9,478.1,250.1,483,245.6,486.2
			z M249.9,430.8c1.2-1.9,3.2-3.3,5-4.9c0.7,1.2,1.4,2.3,2.6,4.2c-1.6,1.8-2.9,3.3-4.2,4.7C252.1,433.5,249.6,431.3,249.9,430.8z
			 M262.2,499.5c-4.6-1.4-6.3-6.4-3.2-9.3c0.6-0.5,2.4-0.8,2.7-0.4c1,1.3,2.3,2.9,2.3,4.4C264,495.9,262.8,497.7,262.2,499.5z
			 M265.9,453c-1.9-1.5-5.3-2.9-5.4-4.4c-0.1-3.9,1.3-7.8,2.1-11.8c0.5-0.2,1-0.4,1.4-0.6c0.8,1.2,1.9,2.2,2.2,3.5
			c0.8,3.2,1.4,6.5,1.6,9.7C268,450.6,266.6,451.8,265.9,453z M266.5,234.5c0.7-0.2,1.5-0.3,2.2-0.5c1.1,4.6,2.1,9.3,3.2,13.9
			l-2.3,0.5C268.5,243.8,267.5,239.1,266.5,234.5z M271.8,361.4c2.5,1.9,5,3.8,7.6,5.7c-3.8,2.5-5.2,1.9-8.6-4
			C271.1,362.5,271.4,361.9,271.8,361.4z M273.4,412.6c-0.6-2.4-0.5-5.1-0.6-8.1c3.8,0.9,7.3,5.6,6.4,8.3c-0.3,1-1.8,2.5-2.4,2.3
			C275.4,414.8,273.7,413.7,273.4,412.6z M280.8,541.3c-2-2.3-4-4.7-6-7.1c3.8-2.7,5.4-1.4,7.2,5.8
			C281.6,540.4,281.2,540.8,280.8,541.3z M278.2,462.5c0.4-3.6,0.6-6.6,1.1-9.6c0.2-1.2,0.9-2.2,1.4-3.4c1.2,0.9,3.1,1.7,3.4,2.9
			c0.9,3.7,1.2,7.6,2,12.8C282.1,463.8,280,463.1,278.2,462.5z M291.3,354.2c0.8,0,1.6,0,2.4-0.1c0.2,2.8,0.7,5.7,0.4,8.4
			c-0.1,0.6-4.5,1.7-5.2,0.9C285,359.3,290.3,357.3,291.3,354.2z M289.3,427.3c-1-1.9,0-4.7,0.2-8.7c2.5,0.7,4.7,1.4,5.9,1.7
			c-0.2,3.5-0.3,6-0.6,9.7C293.1,429.3,290.1,428.9,289.3,427.3z M309.4,519.6c-2-1-3.9-2.3-5.6-3.5c1.5-2.4,2.4-4,4.1-6.7
			c1.3,3,2.6,5.5,3.5,8.2C311.5,518.1,309.7,519.8,309.4,519.6z M346,587.6c-0.4,0.8-1.5,1.8-2.3,1.8c-2.9-0.1-5.8-0.5-8.7-0.9
			c-2.8-0.4-5.5-0.9-8.3-1.3c-0.3-0.5-0.5-1-0.8-1.6c2.9-1.2,6-3.6,8.7-3.2c3.4,0.5,6.5,3.4,10.5,2.9
			C345.4,585.3,346.3,587.1,346,587.6z M376.1,583.1c-0.1,1-2.7,2.4-4.3,2.7c-4.2,0.8-8.8,0.2-12.5,1.9c-3.8,1.6-6.9,2-10.8,0.1
			c2-4.1,4.5-7.1,9.2-7.9c1.3-0.2,2.6-1.7,3.5-2.8c3.6-4.4,7.1-3,10.2-0.6c1-4.4,2-8.6,2.9-12.8c0.6,0,1.3,0.1,1.9,0.1
			C376.3,570.3,376.5,576.7,376.1,583.1z M395.2,576.7c0.3,10.2,0.3,21,3.7,30.3c12.2,33.2,36.2,54.8,70.4,65.9
			c-3-2.5-5.8-4.4-8.1-6.8c-7.7-8.1-13.8-18.2-25.8-21c-0.5-0.1-0.9-0.6-1.3-1c-8.4-8-15.8-16.7-20.8-27.3c-1-2-1.7-4.2-2.6-6.3
			c-0.2,0.1-0.4,0.2-0.7,0.3c1.1,4.7,2.1,9.4,3.2,14.1c-0.5,0.1-1.1,0.2-1.6,0.3c-2.7-6.3-6.1-12-4.3-20c1.8-8.1,2.5-16.8,1.6-24.9
			c-1.1-10.1-4.1-19.8,4.7-28.1c-1.8,1.3-3.5,2.7-5.3,4c-0.2-0.2-0.5-0.4-0.7-0.6c0.8-1.6,1.6-3.1,2.8-5.6
			C399.5,559.9,394.9,566.7,395.2,576.7z M429.4,568.8c-6.6,2.3-11.5,8.6-8.7,12.3c5,6.7,11.5,12.3,17.5,18.3
			c0.4,0.4,1.7,0.1,3.9,0.1c-1.2-2.6-1.7-4.6-2.9-6c-2.8-3.3-5.7-6.5-8.8-9.4c-3.4-3.3-5.7-6.5-2.1-11.1
			C429.1,572,429,570.4,429.4,568.8z"/>
	</g>
</g>
</svg>
